# AST/ASF file generated using VICON BodyLanguage
# -----------------------------------------------
:version 1.10
:name VICON
:units
  mass 1.0
  length 0.45
  angle deg
:documentation
   .ast/.asf automatically generated from VICON data using
   VICON BodyBuilder and BodyLanguage model FoxedUp or BRILLIANT.MOD
:root
   order TX TY TZ RX RY RZ
   axis XYZ
   position 0 0 0  
   orientation 0 0 0 
:bonedata
  begin
     id 1 
     name lhipjoint
     direction 0.528046 -0.759594 0.379717 
     length 2.39752 
     axis 0 0 0  XYZ
  end
  begin
     id 2 
     name lfemur
     direction 0.34202 -0.939693 0  
     length 7.31175  
     axis 0 0 20  XYZ
    dof rx ry rz
    limits (-160.0 20.0)
           (-70.0 70.0)
           (-60.0 70.0)
  end
  begin
     id 3 
     name ltibia
     direction 0.34202 -0.939693 0   
     length 7.52482   
     axis 0 0 20   XYZ
    dof rx
    limits (-10.0 170.0)
  end
  begin
     id 4 
     name lfoot
     direction 0.0675379 -0.185559 0.980309   
     length 2.00961   
     axis -90 7.62852e-016 20   XYZ
    dof rx rz
    limits (-45.0 90.0)
           (-70.0 20.0)
  end
  begin
     id 5 
     name ltoes
     direction 1.5352e-011 -4.22286e-011 1   
     length 1.01383   
     axis -90 7.62852e-016 20   XYZ
    dof rx
    limits (-90.0 20.0)
  end
  begin
     id 6 
     name rhipjoint
     direction -0.510274 -0.769251 0.384544   
     length 2.36742  
     axis 0 0 0  XYZ 
  end
  begin
     id 7 
     name rfemur
     direction -0.34202 -0.939693 0   
     length 7.45325   
     axis 0 0 -20   XYZ
    dof rx ry rz
    limits (-160.0 20.0)
           (-70.0 70.0)
           (-70.0 60.0)
  end
  begin
     id 8 
     name rtibia
     direction -0.34202 -0.939693 0   
     length 7.49587   
     axis 0 0 -20   XYZ
    dof rx
    limits (-10.0 170.0)
 end
 begin
     id 9 
     name rfoot
     direction -0.106475 -0.292536 0.950308   
     length 2.20898  
     axis -90 -7.62852e-016 -20   XYZ
    dof rx rz
    limits (-45.0 90.0)
           (-20.0 70.0)
  end
  begin
     id 10 
     name rtoes
     direction -1.53597e-011 -4.22023e-011 1   
     length 1.10065   
     axis -90 -7.62852e-016 -20   XYZ
    dof rx
    limits (-90.0 20.0)
  end
  begin
     id 11 
     name lowerback
     direction 0.0260024 0.998026 -0.0571652   
     length 2.11214   
     axis 0 0 0   XYZ
    dof rx ry rz
    limits (-20.0 45.0)
           (-30.0 30.0)
           (-30.0 30.0)
  end
  begin
     id 12 
     name upperback
     direction 0.0216202 0.999542 -0.0211766   
     length 2.11689   
     axis 0 0 0   XYZ
    dof rx ry rz
    limits (-20.0 45.0)
           (-30.0 30.0)
           (-30.0 30.0)
  end
  begin
     id 13 
     name thorax
     direction 0.00883312 0.999944 0.00589057   
     length 2.11821   
     axis 0 0 0   XYZ
    dof rx ry rz
    limits (-20.0 45.0)
           (-30.0 30.0)
           (-30.0 30.0)
  end
  begin
     id 14 
     name lowerneck
     direction -0.059386 0.994433 0.0870401   
     length 1.81176   
     axis 0 0 0   XYZ
    dof rx ry rz
    limits (-20.0 45.0)
           (-30.0 30.0)
           (-30.0 30.0)
  end
  begin
     id 15 
     name upperneck
     direction 0.0506457 0.97328 -0.223967   
     length 1.82382   
     axis 0 0 0   XYZ
    dof rx ry rz
    limits (-20.0 45.0)
           (-30.0 30.0)
           (-30.0 30.0)
  end
  begin
     id 16
     name head
     direction 0.0205902 0.996147 -0.0852487  
     length 1.84805  
     axis 0 0 0   XYZ
    dof rx ry rz
    limits (-20.0 45.0)
           (-30.0 30.0)
           (-30.0 30.0)
  end
  begin
     id 17 
     name lclavicle
     direction 0.949493 0.303881 -0.0782325  
     length 3.60584  
     axis 0 0 0   XYZ
    dof ry rz
    limits (-20.0 10.0)
           (0.0 20.0)
  end
  begin
     id 18 
     name lhumerus
     direction 1 -4.48965e-011 1.48782e-027   
     length 4.95681   
     axis 180 -30 -90   XYZ
    dof rx ry rz
    limits (-60.0 90.0)
           (-90.0 90.0)
           (-90.0 90.0)
  end
  begin
     id 19
     name lradius
     direction 1 -4.48952e-011 2.06528e-027   
     length 3.40915   
     axis 180 -30 -90   XYZ
    dof rx
    limits (-10.0 170.0)
  end
  begin
     id 20
     name lwrist
     direction 1 -4.48964e-011 1.28021e-027   
     length 1.70457   
     axis -1.61767e-015 90 90   XYZ
    dof ry
    limits (-180.0 0.0)
 end
  begin
     id 21 
     name lhand
     direction 1 -4.49094e-011 2.54887e-027   
     length 0.616403   
     axis -1.63363e-015 90 90   XYZ
    dof rx rz
    limits (-90.0 90.0)
           (-45.0 45.0)
  end
  begin
     id 22 
     name lfingers
     direction 1 -4.49002e-011 5.11407e-027   
     length 0.49696   
     axis -3.26723e-015 90 90   XYZ
    dof rx
    limits (0.0 90.0)
  end
  begin
     id 23
     name lthumb
     direction 0.707107 -6.34998e-011 0.707107   
     length 0.713539   
     axis -90 45 -2.25915e-014   XYZ
    dof rx rz
    limits (-45.0 45.0)
           (-45.0 45.0)
  end
  begin
     id 24 
     name rclavicle
     direction -0.937751 0.334612 -0.0930482   
     length 3.46287  
     axis 0 0 0   XYZ 
    dof ry rz
    limits (-10.0 20.0)
           (-20.0 0.0)
  end
  begin
     id 25 
     name rhumerus
     direction -1 -4.48962e-011 3.59972e-027  
     length 5.352   
     axis 180 30 90   XYZ
    dof rx ry rz
    limits (-90.0 60.0)
           (-90.0 90.0)
           (-90.0 90.0)
  end
  begin
     id 26 
     name rradius
     direction -1 -4.48987e-011 -3.76925e-027   
     length 3.43721   
     axis 180 30 90   XYZ
    dof rx
    limits (-10.0 170.0)
  end
  begin
     id 27 
     name rwrist
     direction -1 -4.48943e-011 1.28112e-027   
     length 1.7186   
     axis -1.61767e-015 -90 -90   XYZ
    dof ry
    limits (-180.0 0.0)
  end
  begin
     id 28
     name rhand
     direction -1 -4.49027e-011 2.55483e-027   
     length 0.72009   
     axis -1.63363e-015 -90 -90   XYZ
    dof rx rz
    limits (-90.0 90.0)
           (-45.0 45.0)
  end
  begin
     id 29
     name rfingers
     direction -1 -4.48827e-011 5.14506e-027   
     length 0.580555   
     axis -3.26723e-015 -90 -90   XYZ
    dof rx
    limits (0.0 90.0)
  end
  begin
     id 30
     name rthumb
     direction -0.707107 -6.34936e-011 0.707107   
     length 0.833564   
     axis -90 -45 2.25915e-014   XYZ
    dof rx rz
    limits (-45.0 45.0)
           (-45.0 45.0)
  end
:hierarchy
  begin
    root lhipjoint rhipjoint lowerback
    lhipjoint lfemur
    lfemur ltibia
    ltibia lfoot
    lfoot ltoes
    rhipjoint rfemur
    rfemur rtibia
    rtibia rfoot
    rfoot rtoes
    lowerback upperback
    upperback thorax
    thorax lowerneck lclavicle rclavicle
    lowerneck upperneck
    upperneck head
    lclavicle lhumerus
    lhumerus lradius
    lradius lwrist
    lwrist lhand lthumb
    lhand lfingers
    rclavicle rhumerus
    rhumerus rradius
    rradius rwrist
    rwrist rhand rthumb
    rhand rfingers
  end

#!OML:ASF H:\Terrain\Patient Classification 1\Terrain2\Thursday\justin.ASF
:FULLY-SPECIFIED
:DEGREES
120
root -11.8674 17.8284 16.1122 0.0148498 -6.42136 -2.55865
lowerback 4.15627 0.998336 0.802301
upperback 2.13679 1.36635 1.9696
thorax -0.166009 0.678332 1.51189
lowerneck -15.4633 1.60164 -6.93575
upperneck 37.0727 5.04302 -0.689518
head 15.5415 1.03173 1.79947
rclavicle -2.01269e-015 -4.77083e-015
rhumerus -26.4168 -4.78952 -84.5978
rradius 29.4574
rwrist -10.6768
rhand -20.1048 11.3022
rfingers 7.12502
rthumb 6.23862 -18.5859
lclavicle -2.01269e-015 -4.77083e-015
lhumerus -30.4844 8.46373 81.457
lradius 34.4899
lwrist 3.96375
lhand -18.4846 22.9312
lfingers 7.12502
lthumb 7.80258 52.7672
rfemur -10.4893 -6.64995 22.0033
rtibia 62.7612
rfoot -5.04759 -8.03883
rtoes 13.8154
lfemur -12.4669 5.40819 -18.5873
ltibia 16.5195
lfoot -2.73593 -10.9221
ltoes 9.23544
121
root -11.864 17.8302 16.1848 0.0858891 -6.29073 -2.53386
lowerback 3.99305 0.975291 0.766344
upperback 2.12268 1.33152 1.95053
thorax -0.0890964 0.660823 1.51674
lowerneck -15.4006 1.63651 -6.75312
upperneck 37.1351 5.08147 -0.813113
head 15.5663 1.05421 1.72168
rclavicle -3.80176e-015 -7.15625e-015
rhumerus -26.32 -4.75666 -84.6907
rradius 29.9866
rwrist -10.581
rhand -20.8767 11.6072
rfingers 7.12502
rthumb 5.49338 -18.3016
lclavicle -3.80176e-015 -7.15625e-015
lhumerus -30.2865 8.24632 81.3907
lradius 35.1139
lwrist 4.43384
lhand -18.7297 22.3279
lfingers 7.12502
lthumb 7.56609 52.1726
rfemur -11.3246 -6.78477 21.9853
rtibia 62.9795
rfoot -6.31023 -7.68517
rtoes 11.3282
lfemur -12.4286 5.36688 -18.6702
ltibia 16.7896
lfoot -2.93213 -10.9592
ltoes 9.96793
122
root -11.8547 17.8317 16.2526 -0.0752287 -6.1228 -2.26667
lowerback 3.99446 0.897781 0.536889
upperback 2.25177 1.21762 1.88731
thorax 0.0414981 0.601971 1.58651
lowerneck -15.4879 1.72724 -6.70537
upperneck 36.9994 5.24281 -0.915979
head 15.5201 1.11915 1.69666
rclavicle 9.81499e-015 -2.46493e-014
rhumerus -26.0607 -4.10665 -85.0767
rradius 30.6994
rwrist -12.1218
rhand -21.9561 10.827
rfingers 7.12502
rthumb 4.45113 -19.1062
lclavicle 9.81499e-015 -2.46493e-014
lhumerus -29.9903 8.00696 81.3436
lradius 35.764
lwrist 4.84505
lhand -18.6325 22.283
lfingers 7.12502
lthumb 7.65987 52.1243
rfemur -11.8961 -6.95061 21.6006
rtibia 63.0182
rfoot -7.36542 -7.20062
rtoes 9.65612
lfemur -12.1633 5.46932 -19.0578
ltibia 17.028
lfoot -3.14924 -11.2834
ltoes 9.42066
123
root -11.8461 17.826 16.3091 -0.347275 -5.99972 -2.28391
lowerback 4.23638 0.769396 0.549459
upperback 2.42911 1.04739 1.93276
thorax 0.0920555 0.515994 1.63116
lowerneck -15.7103 1.91687 -6.79453
upperneck 36.9416 5.54934 -0.843848
head 15.5263 1.24487 1.79824
rclavicle -1.62755e-014 5.96354e-015
rhumerus -25.4702 -4.47265 -84.9074
rradius 30.033
rwrist -12.1777
rhand -20.8132 14.1919
rfingers 7.12502
rthumb 5.55468 -15.7153
lclavicle -1.62755e-014 5.96354e-015
lhumerus -29.559 7.91279 81.2246
lradius 36.1845
lwrist 5.04654
lhand -18.3954 22.0507
lfingers 7.12502
lthumb 7.88873 51.8835
rfemur -12.354 -6.95128 21.5613
rtibia 62.8981
rfoot -8.3245 -6.69741
rtoes 9.09025
lfemur -11.7879 5.40764 -19.0784
ltibia 17.2557
lfoot -3.2839 -11.3242
ltoes 9.82998
124
root -11.8421 17.8198 16.3642 -0.391893 -5.88041 -2.59108
lowerback 4.47131 0.700329 0.826253
upperback 2.3102 0.973141 2.05748
thorax -0.156615 0.480992 1.603
lowerneck -15.4841 2.08909 -6.66691
upperneck 37.0742 5.79134 -0.941251
head 15.5377 1.34845 1.77274
rclavicle -1.55797e-014 2.78299e-015
rhumerus -25.3251 -5.00281 -84.6048
rradius 29.9423
rwrist -11.6543
rhand -19.0561 14.3624
rfingers 7.12502
rthumb 7.25096 -15.4934
lclavicle -1.55797e-014 2.78299e-015
lhumerus -29.4881 7.87099 81.1025
lradius 36.5713
lwrist 4.91133
lhand -18.2636 21.3337
lfingers 7.12502
lthumb 8.01596 51.1617
rfemur -13.0505 -6.91378 21.9432
rtibia 62.6647
rfoot -9.33846 -6.30327
rtoes 7.07621
lfemur -11.6707 5.17029 -18.7448
ltibia 17.5736
lfoot -3.57482 -11.1917
ltoes 10.1085
125
root -11.8412 17.8188 16.4237 -0.39828 -5.74715 -2.75922
lowerback 4.59869 0.669095 0.976746
upperback 2.14297 0.94482 2.11622
thorax -0.397161 0.467929 1.57731
lowerneck -15.1908 2.15265 -6.50333
upperneck 37.233 5.88211 -1.11095
head 15.5582 1.3831 1.68357
rclavicle -5.14355e-015 9.93923e-015
rhumerus -25.6551 -4.29708 -84.8353
rradius 30.8942
rwrist -12.4314
rhand -19.3987 12.3515
rfingers 7.12502
rthumb 6.92027 -17.5154
lclavicle -5.14355e-015 9.93923e-015
lhumerus -29.752 7.5374 81.0189
lradius 37.3704
lwrist 5.06028
lhand -18.18 20.761
lfingers 7.12502
lthumb 8.09658 50.5859
rfemur -13.7418 -6.87956 22.1912
rtibia 62.3243
rfoot -10.3784 -6.03134
rtoes 3.6307
lfemur -11.6184 4.9539 -18.5577
ltibia 18.0143
lfoot -3.94801 -11.12
ltoes 10.638
126
root -11.8444 17.8074 16.4813 -0.574412 -5.67261 -2.54356
lowerback 4.73392 0.616254 0.605008
upperback 2.23778 0.859504 2.10262
thorax -0.378743 0.422811 1.77542
lowerneck -15.4416 2.21583 -6.54194
upperneck 37.3944 6.0034 -1.04741
head 15.6899 1.42486 1.74665
rclavicle 2.127e-014 1.55052e-014
rhumerus -25.6544 -2.7692 -85.4131
rradius 31.9172
rwrist -14.4147
rhand -21.0329 11.1667
rfingers 7.12502
rthumb 5.34255 -18.746
lclavicle 2.127e-014 1.55052e-014
lhumerus -29.68 7.13938 80.9652
lradius 38.2137
lwrist 5.50288
lhand -18.585 20.648
lfingers 7.12502
lthumb 7.70574 50.4876
rfemur -14.2887 -6.70791 22.0138
rtibia 61.9037
rfoot -11.3185 -5.77297
rtoes 1.2735
lfemur -11.4367 4.63634 -18.7459
ltibia 18.457
lfoot -4.1476 -10.9333
ltoes 13.3357
